<mxfile host="Electron" modified="2024-07-01T04:23:44.966Z" agent="Mozilla/5.0 (Windows NT 10.0; Win64; x64) AppleWebKit/537.36 (KHTML, like Gecko) draw.io/24.5.3 Chrome/124.0.6367.207 Electron/30.0.6 Safari/537.36" etag="695OQ9wSPLLvz5ciGo2N" version="24.5.3" type="device">
  <diagram id="8hu2ZTNcJWFmW239aJM6" name="Page-1">
    <mxGraphModel dx="875" dy="518" grid="1" gridSize="10" guides="1" tooltips="1" connect="1" arrows="1" fold="1" page="1" pageScale="1" pageWidth="827" pageHeight="1169" math="0" shadow="0">
      <root>
        <mxCell id="0" />
        <mxCell id="1" parent="0" />
        <mxCell id="V5KtFxc_0oC7FJVYqeQz-2" value="Pod1" style="whiteSpace=wrap;html=1;aspect=fixed;" parent="1" vertex="1">
          <mxGeometry x="2.5" y="250" width="150" height="150" as="geometry" />
        </mxCell>
        <mxCell id="V5KtFxc_0oC7FJVYqeQz-3" value="" style="whiteSpace=wrap;html=1;aspect=fixed;" parent="1" vertex="1">
          <mxGeometry x="190" y="250" width="150" height="150" as="geometry" />
        </mxCell>
        <mxCell id="V5KtFxc_0oC7FJVYqeQz-4" value="" style="whiteSpace=wrap;html=1;aspect=fixed;" parent="1" vertex="1">
          <mxGeometry x="580" y="250" width="150" height="150" as="geometry" />
        </mxCell>
        <mxCell id="V5KtFxc_0oC7FJVYqeQz-5" value="" style="whiteSpace=wrap;html=1;aspect=fixed;" parent="1" vertex="1">
          <mxGeometry x="387" y="250" width="150" height="150" as="geometry" />
        </mxCell>
        <mxCell id="V5KtFxc_0oC7FJVYqeQz-23" style="edgeStyle=orthogonalEdgeStyle;rounded=0;orthogonalLoop=1;jettySize=auto;html=1;exitX=0.5;exitY=0;exitDx=0;exitDy=0;entryX=0;entryY=0.5;entryDx=0;entryDy=0;endArrow=none;endFill=0;" parent="1" source="V5KtFxc_0oC7FJVYqeQz-51" target="V5KtFxc_0oC7FJVYqeQz-12" edge="1">
          <mxGeometry relative="1" as="geometry">
            <mxPoint x="407" y="356" as="sourcePoint" />
          </mxGeometry>
        </mxCell>
        <mxCell id="V5KtFxc_0oC7FJVYqeQz-9" value="ens0" style="text;html=1;strokeColor=none;fillColor=none;align=center;verticalAlign=middle;whiteSpace=wrap;rounded=0;" parent="1" vertex="1">
          <mxGeometry x="300" y="376" width="40" height="20" as="geometry" />
        </mxCell>
        <mxCell id="V5KtFxc_0oC7FJVYqeQz-12" value="" style="ellipse;whiteSpace=wrap;html=1;aspect=fixed;" parent="1" vertex="1">
          <mxGeometry x="452" y="302.5" width="20" height="20" as="geometry" />
        </mxCell>
        <mxCell id="V5KtFxc_0oC7FJVYqeQz-13" value="br0" style="text;html=1;strokeColor=none;fillColor=none;align=center;verticalAlign=middle;whiteSpace=wrap;rounded=0;" parent="1" vertex="1">
          <mxGeometry x="442" y="255.5" width="40" height="20" as="geometry" />
        </mxCell>
        <mxCell id="V5KtFxc_0oC7FJVYqeQz-14" value="ens0_" style="text;html=1;strokeColor=none;fillColor=none;align=center;verticalAlign=middle;whiteSpace=wrap;rounded=0;" parent="1" vertex="1">
          <mxGeometry x="387" y="376" width="40" height="20" as="geometry" />
        </mxCell>
        <mxCell id="V5KtFxc_0oC7FJVYqeQz-15" style="edgeStyle=orthogonalEdgeStyle;rounded=0;orthogonalLoop=1;jettySize=auto;html=1;exitX=1;exitY=0.5;exitDx=0;exitDy=0;entryX=0;entryY=0.5;entryDx=0;entryDy=0;endArrow=none;endFill=0;" parent="1" source="V5KtFxc_0oC7FJVYqeQz-16" target="V5KtFxc_0oC7FJVYqeQz-17" edge="1">
          <mxGeometry relative="1" as="geometry" />
        </mxCell>
        <mxCell id="V5KtFxc_0oC7FJVYqeQz-22" style="edgeStyle=orthogonalEdgeStyle;rounded=0;orthogonalLoop=1;jettySize=auto;html=1;exitX=0.5;exitY=0;exitDx=0;exitDy=0;entryX=1;entryY=0.5;entryDx=0;entryDy=0;endArrow=none;endFill=0;" parent="1" source="V5KtFxc_0oC7FJVYqeQz-16" target="V5KtFxc_0oC7FJVYqeQz-12" edge="1">
          <mxGeometry relative="1" as="geometry" />
        </mxCell>
        <mxCell id="V5KtFxc_0oC7FJVYqeQz-16" value="" style="ellipse;whiteSpace=wrap;html=1;aspect=fixed;" parent="1" vertex="1">
          <mxGeometry x="505" y="356" width="20" height="20" as="geometry" />
        </mxCell>
        <mxCell id="V5KtFxc_0oC7FJVYqeQz-17" value="" style="ellipse;whiteSpace=wrap;html=1;aspect=fixed;" parent="1" vertex="1">
          <mxGeometry x="595" y="356" width="20" height="20" as="geometry" />
        </mxCell>
        <mxCell id="V5KtFxc_0oC7FJVYqeQz-18" value="ens1_" style="text;html=1;strokeColor=none;fillColor=none;align=center;verticalAlign=middle;whiteSpace=wrap;rounded=0;" parent="1" vertex="1">
          <mxGeometry x="495" y="376" width="40" height="20" as="geometry" />
        </mxCell>
        <mxCell id="V5KtFxc_0oC7FJVYqeQz-19" value="ens1" style="text;html=1;strokeColor=none;fillColor=none;align=center;verticalAlign=middle;whiteSpace=wrap;rounded=0;" parent="1" vertex="1">
          <mxGeometry x="585" y="376" width="40" height="20" as="geometry" />
        </mxCell>
        <mxCell id="V5KtFxc_0oC7FJVYqeQz-28" style="edgeStyle=orthogonalEdgeStyle;rounded=0;orthogonalLoop=1;jettySize=auto;html=1;exitX=1;exitY=0.5;exitDx=0;exitDy=0;entryX=0;entryY=0.5;entryDx=0;entryDy=0;endArrow=none;endFill=0;" parent="1" source="V5KtFxc_0oC7FJVYqeQz-29" target="V5KtFxc_0oC7FJVYqeQz-30" edge="1">
          <mxGeometry relative="1" as="geometry" />
        </mxCell>
        <mxCell id="V5KtFxc_0oC7FJVYqeQz-29" value="" style="ellipse;whiteSpace=wrap;html=1;aspect=fixed;" parent="1" vertex="1">
          <mxGeometry x="122.5" y="315" width="20" height="20" as="geometry" />
        </mxCell>
        <mxCell id="V5KtFxc_0oC7FJVYqeQz-30" value="" style="ellipse;whiteSpace=wrap;html=1;aspect=fixed;" parent="1" vertex="1">
          <mxGeometry x="200" y="315" width="20" height="20" as="geometry" />
        </mxCell>
        <mxCell id="V5KtFxc_0oC7FJVYqeQz-31" value="veth1_" style="text;html=1;strokeColor=none;fillColor=none;align=center;verticalAlign=middle;whiteSpace=wrap;rounded=0;" parent="1" vertex="1">
          <mxGeometry x="112.5" y="335.5" width="40" height="20" as="geometry" />
        </mxCell>
        <mxCell id="V5KtFxc_0oC7FJVYqeQz-32" value="veth1" style="text;html=1;strokeColor=none;fillColor=none;align=center;verticalAlign=middle;whiteSpace=wrap;rounded=0;" parent="1" vertex="1">
          <mxGeometry x="190" y="335.5" width="40" height="20" as="geometry" />
        </mxCell>
        <mxCell id="V5KtFxc_0oC7FJVYqeQz-37" value="" style="ellipse;whiteSpace=wrap;html=1;aspect=fixed;" parent="1" vertex="1">
          <mxGeometry x="255" y="302.5" width="20" height="20" as="geometry" />
        </mxCell>
        <mxCell id="V5KtFxc_0oC7FJVYqeQz-38" value="tun0" style="text;html=1;strokeColor=none;fillColor=none;align=center;verticalAlign=middle;whiteSpace=wrap;rounded=0;" parent="1" vertex="1">
          <mxGeometry x="245" y="255.5" width="40" height="20" as="geometry" />
        </mxCell>
        <mxCell id="V5KtFxc_0oC7FJVYqeQz-39" value="Pod2" style="whiteSpace=wrap;html=1;aspect=fixed;" parent="1" vertex="1">
          <mxGeometry x="190" y="440" width="150" height="150" as="geometry" />
        </mxCell>
        <mxCell id="V5KtFxc_0oC7FJVYqeQz-46" style="edgeStyle=orthogonalEdgeStyle;rounded=0;orthogonalLoop=1;jettySize=auto;html=1;exitX=0.5;exitY=1;exitDx=0;exitDy=0;entryX=0.5;entryY=0;entryDx=0;entryDy=0;endArrow=none;endFill=0;" parent="1" source="V5KtFxc_0oC7FJVYqeQz-42" target="V5KtFxc_0oC7FJVYqeQz-43" edge="1">
          <mxGeometry relative="1" as="geometry" />
        </mxCell>
        <mxCell id="V5KtFxc_0oC7FJVYqeQz-42" value="" style="ellipse;whiteSpace=wrap;html=1;aspect=fixed;" parent="1" vertex="1">
          <mxGeometry x="255" y="372.5" width="20" height="20" as="geometry" />
        </mxCell>
        <mxCell id="V5KtFxc_0oC7FJVYqeQz-43" value="" style="ellipse;whiteSpace=wrap;html=1;aspect=fixed;" parent="1" vertex="1">
          <mxGeometry x="255" y="450" width="20" height="20" as="geometry" />
        </mxCell>
        <mxCell id="V5KtFxc_0oC7FJVYqeQz-47" value="veth2_" style="text;html=1;strokeColor=none;fillColor=none;align=center;verticalAlign=middle;whiteSpace=wrap;rounded=0;" parent="1" vertex="1">
          <mxGeometry x="210" y="450" width="40" height="20" as="geometry" />
        </mxCell>
        <mxCell id="V5KtFxc_0oC7FJVYqeQz-48" value="veth2" style="text;html=1;strokeColor=none;fillColor=none;align=center;verticalAlign=middle;whiteSpace=wrap;rounded=0;" parent="1" vertex="1">
          <mxGeometry x="210" y="372.5" width="40" height="20" as="geometry" />
        </mxCell>
        <mxCell id="V5KtFxc_0oC7FJVYqeQz-49" style="edgeStyle=orthogonalEdgeStyle;rounded=0;orthogonalLoop=1;jettySize=auto;html=1;exitX=1;exitY=0.5;exitDx=0;exitDy=0;entryX=0;entryY=0.5;entryDx=0;entryDy=0;endArrow=none;endFill=0;" parent="1" source="V5KtFxc_0oC7FJVYqeQz-50" target="V5KtFxc_0oC7FJVYqeQz-51" edge="1">
          <mxGeometry relative="1" as="geometry" />
        </mxCell>
        <mxCell id="V5KtFxc_0oC7FJVYqeQz-50" value="" style="ellipse;whiteSpace=wrap;html=1;aspect=fixed;" parent="1" vertex="1">
          <mxGeometry x="310" y="356" width="20" height="20" as="geometry" />
        </mxCell>
        <mxCell id="V5KtFxc_0oC7FJVYqeQz-51" value="" style="ellipse;whiteSpace=wrap;html=1;aspect=fixed;" parent="1" vertex="1">
          <mxGeometry x="400" y="356" width="20" height="20" as="geometry" />
        </mxCell>
        <mxCell id="V5KtFxc_0oC7FJVYqeQz-54" value="" style="ellipse;whiteSpace=wrap;html=1;aspect=fixed;" parent="1" vertex="1">
          <mxGeometry x="645" y="302.5" width="20" height="20" as="geometry" />
        </mxCell>
        <mxCell id="V5KtFxc_0oC7FJVYqeQz-55" value="tun0" style="text;html=1;strokeColor=none;fillColor=none;align=center;verticalAlign=middle;whiteSpace=wrap;rounded=0;" parent="1" vertex="1">
          <mxGeometry x="635" y="255.5" width="40" height="20" as="geometry" />
        </mxCell>
        <mxCell id="V5KtFxc_0oC7FJVYqeQz-56" value="sender0" style="text;html=1;strokeColor=none;fillColor=none;align=center;verticalAlign=middle;whiteSpace=wrap;rounded=0;" parent="1" vertex="1">
          <mxGeometry x="245" y="220" width="40" height="20" as="geometry" />
        </mxCell>
        <mxCell id="V5KtFxc_0oC7FJVYqeQz-57" value="ns1" style="text;html=1;strokeColor=none;fillColor=none;align=center;verticalAlign=middle;whiteSpace=wrap;rounded=0;" parent="1" vertex="1">
          <mxGeometry x="57.5" y="220" width="40" height="20" as="geometry" />
        </mxCell>
        <mxCell id="V5KtFxc_0oC7FJVYqeQz-58" value="ns2" style="text;html=1;strokeColor=none;fillColor=none;align=center;verticalAlign=middle;whiteSpace=wrap;rounded=0;" parent="1" vertex="1">
          <mxGeometry x="245" y="600" width="40" height="20" as="geometry" />
        </mxCell>
        <mxCell id="V5KtFxc_0oC7FJVYqeQz-59" value="receiver0" style="text;html=1;strokeColor=none;fillColor=none;align=center;verticalAlign=middle;whiteSpace=wrap;rounded=0;" parent="1" vertex="1">
          <mxGeometry x="635" y="220" width="40" height="20" as="geometry" />
        </mxCell>
        <mxCell id="tgKx6l9hmu5dXu2e1Y8a-1" value="host network namespace" style="text;html=1;strokeColor=none;fillColor=none;align=center;verticalAlign=middle;whiteSpace=wrap;rounded=0;" parent="1" vertex="1">
          <mxGeometry x="423" y="220" width="78" height="20" as="geometry" />
        </mxCell>
        <mxCell id="JyEHgjvExbQd3HWnGImz-1" value="10.0.0.1/32" style="text;html=1;strokeColor=none;fillColor=none;align=center;verticalAlign=middle;whiteSpace=wrap;rounded=0;" parent="1" vertex="1">
          <mxGeometry x="85" y="290" width="57.5" height="20" as="geometry" />
        </mxCell>
        <mxCell id="JyEHgjvExbQd3HWnGImz-2" value="10.0.0.2/32" style="text;html=1;strokeColor=none;fillColor=none;align=center;verticalAlign=middle;whiteSpace=wrap;rounded=0;" parent="1" vertex="1">
          <mxGeometry x="236.25" y="480" width="57.5" height="20" as="geometry" />
        </mxCell>
        <mxCell id="JyEHgjvExbQd3HWnGImz-4" value="192.168.1.1/24" style="text;html=1;strokeColor=none;fillColor=none;align=center;verticalAlign=middle;whiteSpace=wrap;rounded=0;" parent="1" vertex="1">
          <mxGeometry x="276" y="410" width="88" height="20" as="geometry" />
        </mxCell>
        <mxCell id="JyEHgjvExbQd3HWnGImz-5" value="192.168.1.2/24" style="text;html=1;strokeColor=none;fillColor=none;align=center;verticalAlign=middle;whiteSpace=wrap;rounded=0;" parent="1" vertex="1">
          <mxGeometry x="561" y="410" width="88" height="20" as="geometry" />
        </mxCell>
        <mxCell id="JyEHgjvExbQd3HWnGImz-7" value="172.16.0.1/30" style="text;html=1;strokeColor=none;fillColor=none;align=center;verticalAlign=middle;whiteSpace=wrap;rounded=0;" parent="1" vertex="1">
          <mxGeometry x="228.13" y="275.5" width="73.75" height="22.5" as="geometry" />
        </mxCell>
        <mxCell id="JyEHgjvExbQd3HWnGImz-8" value="172.16.0.2/30" style="text;html=1;strokeColor=none;fillColor=none;align=center;verticalAlign=middle;whiteSpace=wrap;rounded=0;" parent="1" vertex="1">
          <mxGeometry x="618.13" y="275.13" width="73.75" height="23.25" as="geometry" />
        </mxCell>
        <mxCell id="JyEHgjvExbQd3HWnGImz-9" value="192.168.1.254/24" style="text;html=1;strokeColor=none;fillColor=none;align=center;verticalAlign=middle;whiteSpace=wrap;rounded=0;" parent="1" vertex="1">
          <mxGeometry x="418" y="276.75" width="88" height="20" as="geometry" />
        </mxCell>
      </root>
    </mxGraphModel>
  </diagram>
</mxfile>
